<svg width="67" height="67" viewBox="0 0 67 67" fill="none" xmlns="http://www.w3.org/2000/svg">
<g clip-path="url(#clip0_45_116402)">
<rect width="67" height="67" rx="33.5" fill="white"/>
<path fill-rule="evenodd" clip-rule="evenodd" d="M32.4858 6C24.3408 6 17.1948 12.3508 17.1948 16.194C17.1948 19.14 18.989 21.6783 21.5476 22.7589L13.4842 29.4665L14.1264 30.2617L16.8074 33.5339L17.4497 34.3291L21.7719 30.7306C22.2001 30.3636 22.2612 29.7112 21.8942 29.283L21.1909 28.4573L24.3306 25.8477V31.4849C24.3306 32.3718 24.5854 33.2587 25.0748 34.0538C25.6048 34.9305 26.4204 35.6747 27.3888 36.2557V39.9357L26.3694 39.3547V42.1071L27.4805 42.7391L31.4664 45.0123V44.0439C31.4664 43.6464 31.3848 43.2488 31.2421 42.892C30.9873 42.2702 30.5285 41.7299 29.9271 41.3935L29.4276 41.1081V37.1426C30.3858 37.428 31.4154 37.6013 32.4858 37.6013C33.5561 37.6013 34.5857 37.428 35.544 37.1426V41.1081L35.0547 41.3935C34.4124 41.7503 33.9435 42.3313 33.6989 42.9939C33.5663 43.3303 33.5052 43.6769 33.5052 44.0439V45.0225L36.8284 43.1163L38.6022 42.1071V39.3547L37.5828 39.9357V36.2557C38.5512 35.6645 39.3667 34.9305 39.8968 34.0538C40.3861 33.2587 40.641 32.3718 40.641 31.4849V23.8802C40.906 23.7069 41.1405 23.5133 41.3138 23.2992C44.9326 22.9526 47.7767 19.9046 47.7767 16.194C47.7767 12.4834 40.6308 6 32.4858 6ZM38.6022 31.4849C38.6022 32.0048 38.4493 32.5145 38.1638 32.9936C37.2158 34.5329 34.9323 35.5625 32.4858 35.5625C30.0392 35.5625 27.7558 34.5329 26.8077 32.9936C26.5223 32.5145 26.3694 32.0048 26.3694 31.4849V24.7161C28.6834 25.3176 31.5989 25.3686 32.4858 25.3686C33.3727 25.3686 36.2881 25.3176 38.6022 24.7161V31.4849ZM41.222 21.2298C39.591 19.3643 33.8008 19.2522 32.4858 19.2522C31.1708 19.2522 25.3806 19.3643 23.7495 21.2298C21.2112 20.9444 19.2336 18.8036 19.2336 16.194C19.2336 13.829 24.9728 8.0388 32.4858 8.0388C39.9987 8.0388 45.7379 13.829 45.7379 16.194C45.7379 18.8036 43.7603 20.9444 41.222 21.2298ZM0.547868 47.3572L18.2038 53.494C19.4271 53.9221 20.2528 55.0842 20.2528 56.3789V74.0001H31.4662V47.3674L25.0746 43.718H12.4035C11.5064 43.718 10.7215 43.1369 10.4564 42.2806C10.1914 41.4141 10.5278 40.4865 11.2719 39.987L15.6553 37.0715C15.8898 36.9084 16.0427 36.6739 16.0835 36.3987C16.1243 36.1132 16.0529 35.838 15.8694 35.6239L11.486 30.2415C11.3127 30.0274 11.0681 29.8949 10.7928 29.8745C10.5176 29.8541 10.2627 29.9459 10.069 30.1294L0.201273 38.8758C0.107841 38.9603 -1.20174 39.0604 -2.6481 39.1709L-2.64824 39.1709C-4.51579 39.3136 -6.61133 39.4738 -6.61133 39.6404L-0.135128 46.3888C-0.135128 46.4989 -0.206122 46.7126 -0.283755 46.9462C-0.515073 47.6424 -0.80534 48.516 0.547868 47.3572ZM33.5048 47.367L38.9076 44.2884C46.5531 46.2661 53.7882 49.3096 51.854 66.714L33.5048 73.9997V47.367ZM35.5436 56.9697C35.5436 57.5304 36.0023 57.9891 36.563 57.9891C37.1237 57.9891 37.5824 57.5304 37.5824 56.9697C37.5824 56.4091 37.1237 55.9504 36.563 55.9504C36.0023 55.9504 35.5436 56.4091 35.5436 56.9697ZM35.5436 51.8728C35.5436 52.4334 36.0023 52.8922 36.563 52.8922C37.1237 52.8922 37.5824 52.4334 37.5824 51.8728C37.5824 51.3121 37.1237 50.8534 36.563 50.8534C36.0023 50.8534 35.5436 51.3121 35.5436 51.8728Z" fill="#0145FE"/>
</g>
<defs>
<clipPath id="clip0_45_116402">
<rect width="67" height="67" rx="33.5" fill="white"/>
</clipPath>
</defs>
</svg>
